<svg xmlns="http://www.w3.org/2000/svg" viewBox="0 0 740 480">
    <rect width="740" height="480" fill="#b22234"/>
    <rect width="740" height="40" y="40" fill="white"/>
    <rect width="740" height="40" y="120" fill="white"/>
    <rect width="740" height="40" y="200" fill="white"/>
    <rect width="740" height="40" y="280" fill="white"/>
    <rect width="740" height="40" y="360" fill="white"/>
    <rect width="740" height="40" y="440" fill="white"/>
    <rect width="296" height="220" fill="#3c3b6e"/>
    <g fill="white">
        <circle cx="40" cy="30" r="15"/><circle cx="80" cy="70" r="15"/>
        <circle cx="120" cy="30" r="15"/><circle cx="160" cy="70" r="15"/>
        <circle cx="200" cy="30" r="15"/><circle cx="240" cy="70" r="15"/>
        <circle cx="280" cy="30" r="15"/><circle cx="40" cy="110" r="15"/>
        <circle cx="80" cy="150" r="15"/><circle cx="120" cy="110" r="15"/>
        <circle cx="160" cy="150" r="15"/><circle cx="200" cy="110" r="15"/>
        <circle cx="240" cy="150" r="15"/><circle cx="280" cy="110" r="15"/>
    </g>
</svg>
